<svg xmlns="http://www.w3.org/2000/svg" viewBox="0 0 240 220" fill="none">
  <!-- Wheat/Fern Symbol - terracotta red -->
  <g stroke="#C45C3E" stroke-width="3.5" stroke-linecap="round" fill="none">
    <!-- Center stem -->
    <path d="M120 28 L120 95"/>
    <!-- Leaves - 7 pairs, curving outward with rounded ends -->
    <path d="M120 32 C110 28, 100 28, 88 34"/>
    <path d="M120 32 C130 28, 140 28, 152 34"/>
    <path d="M120 40 C108 36, 96 36, 82 44"/>
    <path d="M120 40 C132 36, 144 36, 158 44"/>
    <path d="M120 48 C106 44, 92 44, 76 54"/>
    <path d="M120 48 C134 44, 148 44, 164 54"/>
    <path d="M120 56 C104 52, 88 52, 70 64"/>
    <path d="M120 56 C136 52, 152 52, 170 64"/>
    <path d="M120 64 C102 60, 84 60, 64 74"/>
    <path d="M120 64 C138 60, 156 60, 176 74"/>
    <path d="M120 72 C100 68, 80 68, 58 84"/>
    <path d="M120 72 C140 68, 160 68, 182 84"/>
    <path d="M120 80 C98 76, 76 78, 54 94"/>
    <path d="M120 80 C142 76, 164 78, 186 94"/>
  </g>

  <!-- Infinity Symbol - gold/mustard -->
  <path d="M78 105 C78 92, 95 92, 120 105 C145 118, 162 118, 162 105 C162 92, 145 92, 120 105 C95 118, 78 118, 78 105"
        stroke="#D4A843" stroke-width="5" fill="none" stroke-linecap="round" stroke-linejoin="round"/>

  <!-- WFS Text - 3D effect with shadow -->
  <!-- Shadow/outline layer -->
  <text x="120" y="165" text-anchor="middle" font-family="Arial Black, Impact, sans-serif" font-size="58" font-weight="900" fill="#C45C3E" letter-spacing="2">
    <tspan dx="3" dy="3">WFS</tspan>
  </text>
  <!-- Main gold text -->
  <text x="120" y="165" text-anchor="middle" font-family="Arial Black, Impact, sans-serif" font-size="58" font-weight="900" fill="#D4A843" letter-spacing="2">WFS</text>

  <!-- WISDOM FRONTIERS SOCIETY text -->
  <text x="120" y="190" text-anchor="middle" font-family="Arial, sans-serif" font-size="14" font-weight="700" fill="#C45C3E" letter-spacing="3">WISDOM FRONTIERS</text>
  <text x="120" y="208" text-anchor="middle" font-family="Arial, sans-serif" font-size="14" font-weight="700" fill="#C45C3E" letter-spacing="3">SOCIETY</text>
</svg>
