<svg xmlns="http://www.w3.org/2000/svg" viewBox="0 0 200 180" fill="none">
  <!-- Wheat/Fern Symbol -->
  <g stroke="#C45C3E" stroke-width="3" stroke-linecap="round" fill="none">
    <!-- Center stem -->
    <path d="M100 45 L100 85"/>
    <!-- Leaves - alternating sides -->
    <path d="M100 50 Q85 45 75 50"/>
    <path d="M100 50 Q115 45 125 50"/>
    <path d="M100 55 Q82 50 70 55"/>
    <path d="M100 55 Q118 50 130 55"/>
    <path d="M100 60 Q80 55 65 62"/>
    <path d="M100 60 Q120 55 135 62"/>
    <path d="M100 65 Q78 60 62 68"/>
    <path d="M100 65 Q122 60 138 68"/>
    <path d="M100 70 Q75 65 58 75"/>
    <path d="M100 70 Q125 65 142 75"/>
    <path d="M100 75 Q72 70 55 82"/>
    <path d="M100 75 Q128 70 145 82"/>
    <path d="M100 80 Q70 75 52 88"/>
    <path d="M100 80 Q130 75 148 88"/>
  </g>

  <!-- Infinity Symbol -->
  <path d="M70 95 C70 85 85 85 100 95 C115 105 130 105 130 95 C130 85 115 85 100 95 C85 105 70 105 70 95"
        stroke="#D4A843" stroke-width="4" fill="none" stroke-linecap="round"/>

  <!-- WFS Text -->
  <text x="100" y="135" text-anchor="middle" font-family="Arial Black, sans-serif" font-size="42" font-weight="900">
    <tspan fill="#C45C3E" dx="2" dy="2">WFS</tspan>
  </text>
  <text x="100" y="135" text-anchor="middle" font-family="Arial Black, sans-serif" font-size="42" font-weight="900" fill="#D4A843">WFS</text>
</svg>
